<svg width="18" height="18" viewBox="0 0 18 18" fill="none" xmlns="http://www.w3.org/2000/svg">
    <path fill-rule="evenodd" clip-rule="evenodd" d="M11.754 6.82c-1.084-.176-1.99-1.075-2.155-1.876a3.38 3.38 0 0 1 .056-1.436c.208-.755.72-1.258 1.527-1.258 1.327 0 1.888.807 2.15 2.195.098.524.086 1.074-.073 1.506-.226.617-.743.964-1.438.878l-.067-.01zm.49-1.241c.082-.224.09-.586.024-.934-.176-.937-.438-1.315-1.086-1.315-.255 0-.393.135-.484.465a2.33 2.33 0 0 0-.04.932c.026.123.163.353.363.55.252.25.563.42.906.476.196.032.255-.006.317-.174zm-6.97-1.431c.164-.801 1.07-1.7 2.154-1.875l.068-.01c.694-.086 1.21.261 1.438.878.158.432.17.982.071 1.506-.26 1.388-.821 2.195-2.149 2.195-.806 0-1.319-.503-1.527-1.258a3.38 3.38 0 0 1-.056-1.436zm2.669.3c.065-.35.058-.71-.025-.935-.062-.168-.12-.206-.317-.174a1.67 1.67 0 0 0-.906.475c-.2.198-.337.428-.363.551a2.33 2.33 0 0 0 .04.933c.09.329.229.464.484.464.648 0 .91-.378 1.087-1.315zm-3.8 1.848.076.005c.84.057 1.533.52 2.049 1.341.45.715.37 1.64-.196 2.27l-.068.075a5.7 5.7 0 0 1-.713.685 1.756 1.756 0 0 1-2.104.007c-.698-.503-1.12-1.84-.859-2.86.205-.798.816-1.31 1.742-1.507l.074-.016zm.125 1.096-.05-.006-.059.015c-.459.126-.696.348-.783.686-.156.606.122 1.484.445 1.717.262.19.58.186.817.007.13-.098.322-.284.565-.55l.066-.072a.81.81 0 0 0 .083-.972c-.312-.497-.666-.759-1.084-.825zm3.008 2.093c.339-.38.68-.657 1.029-.828a1.625 1.625 0 0 1 2 .472l.074.098c.332.444.566.838.701 1.191l.036.087c.121.283.29.516.502.7.885.734 1.374 1.549 1.426 2.438l.005.03c.1.75-.313 1.354-1.118 1.757l-.074.036c-.193.09-.408.122-.618.092l-1.856-.27-.108-.029c-.638-.162-1.016-.13-1.159.01-.466.456-1.147.576-1.996.41l-.1-.019-.085-.054c-.46-.288-.819-.605-1.074-.954a2.158 2.158 0 0 1 .192-2.776l.78-.804c.214-.224.539-.579.973-1.062l.47-.525zm2.239.391-.07-.092a.541.541 0 0 0-.666-.156c-.21.102-.443.292-.695.575-.54.607-.96 1.07-1.26 1.393l-.212.225-.781.806a1.079 1.079 0 0 0-.097 1.388c.14.191.343.38.61.566l.081.056.048.008c.424.063.7.01.86-.124l.075-.069c.486-.432 1.225-.48 2.192-.224l.033.008-.033-.008 1.795.261.058-.028c.432-.215.563-.42.52-.672l-.006-.033-.002-.033c-.027-.565-.359-1.125-1.047-1.694a3.02 3.02 0 0 1-.848-1.225l-.023-.059c-.1-.237-.278-.53-.532-.869zm4.266-2.765.075-.005.074.016c.926.198 1.537.709 1.742 1.507.261 1.02-.161 2.357-.86 2.86a1.756 1.756 0 0 1-2.103-.007 5.692 5.692 0 0 1-.713-.684l-.068-.076a1.889 1.889 0 0 1-.196-2.27c.516-.82 1.209-1.284 2.049-1.34zm0 1.085-.049.006c-.418.066-.772.329-1.084.825a.81.81 0 0 0 .083.972l.066.072c.242.266.434.452.565.55.237.18.555.182.817-.007.323-.233.6-1.11.445-1.717-.087-.338-.324-.56-.783-.686l-.06-.015z" fill="#3A3533"/>
</svg>
